<svg width="425" height="284" viewBox="0 0 425 284" fill="none" xmlns="http://www.w3.org/2000/svg">
<path opacity="0.02" d="M123.614 0.799998V8.79999C115.081 9.06665 108.547 10.1333 104.014 12C99.7474 13.6 96.9474 16.8 95.6141 21.6C94.2807 26.1333 93.6141 33.3333 93.6141 43.2V241.6C93.6141 251.2 94.2807 258.4 95.6141 263.2C97.2141 268 100.147 271.2 104.414 272.8C108.681 274.4 115.081 275.467 123.614 276V284C116.414 283.467 107.347 283.2 96.4141 283.2C85.4807 282.933 74.4141 282.8 63.2141 282.8C50.1474 282.8 38.0141 282.933 26.8141 283.2C15.8807 283.2 6.9474 283.467 0.0140632 284V276C8.5474 275.467 14.9474 274.4 19.2141 272.8C23.4807 271.2 26.2807 268 27.6141 263.2C29.2141 258.4 30.0141 251.2 30.0141 241.6V43.2C30.0141 33.3333 29.2141 26.1333 27.6141 21.6C26.2807 16.8 23.3474 13.6 18.8141 12C14.5474 10.1333 8.28073 9.06665 0.0140632 8.79999V0.799998C6.9474 1.06666 15.8807 1.33332 26.8141 1.59999C38.0141 1.86665 50.1474 1.99998 63.2141 1.99998C74.4141 1.99998 85.4807 1.86665 96.4141 1.59999C107.347 1.33332 116.414 1.06666 123.614 0.799998ZM274.005 0.799998V8.79999C265.471 9.06665 258.938 10.1333 254.405 12C250.138 13.6 247.338 16.8 246.005 21.6C244.671 26.1333 244.005 33.3333 244.005 43.2V241.6C244.005 251.2 244.671 258.4 246.005 263.2C247.605 268 250.538 271.2 254.805 272.8C259.071 274.4 265.471 275.467 274.005 276V284C266.805 283.467 257.738 283.2 246.805 283.2C235.871 282.933 224.805 282.8 213.605 282.8C200.538 282.8 188.405 282.933 177.205 283.2C166.271 283.2 157.338 283.467 150.405 284V276C158.938 275.467 165.338 274.4 169.605 272.8C173.871 271.2 176.671 268 178.005 263.2C179.605 258.4 180.405 251.2 180.405 241.6V43.2C180.405 33.3333 179.605 26.1333 178.005 21.6C176.671 16.8 173.738 13.6 169.205 12C164.938 10.1333 158.671 9.06665 150.405 8.79999V0.799998C157.338 1.06666 166.271 1.33332 177.205 1.59999C188.405 1.86665 200.538 1.99998 213.605 1.99998C224.805 1.99998 235.871 1.86665 246.805 1.59999C257.738 1.33332 266.805 1.06666 274.005 0.799998ZM424.395 0.799998V8.79999C415.862 9.06665 409.329 10.1333 404.795 12C400.529 13.6 397.729 16.8 396.395 21.6C395.062 26.1333 394.395 33.3333 394.395 43.2V241.6C394.395 251.2 395.062 258.4 396.395 263.2C397.995 268 400.929 271.2 405.195 272.8C409.462 274.4 415.862 275.467 424.395 276V284C417.195 283.467 408.129 283.2 397.195 283.2C386.262 282.933 375.195 282.8 363.995 282.8C350.929 282.8 338.795 282.933 327.595 283.2C316.662 283.2 307.729 283.467 300.795 284V276C309.329 275.467 315.729 274.4 319.995 272.8C324.262 271.2 327.062 268 328.395 263.2C329.995 258.4 330.795 251.2 330.795 241.6V43.2C330.795 33.3333 329.995 26.1333 328.395 21.6C327.062 16.8 324.129 13.6 319.595 12C315.329 10.1333 309.062 9.06665 300.795 8.79999V0.799998C307.729 1.06666 316.662 1.33332 327.595 1.59999C338.795 1.86665 350.929 1.99998 363.995 1.99998C375.195 1.99998 386.262 1.86665 397.195 1.59999C408.129 1.33332 417.195 1.06666 424.395 0.799998Z" fill="white"/>
</svg>
